<svg xmlns="http://www.w3.org/2000/svg" xmlns:xlink="http://www.w3.org/1999/xlink" width="1667" zoomAndPan="magnify" viewBox="0 0 1250.25 1302.749966" height="1737" preserveAspectRatio="xMidYMid meet" version="1.0"><defs><filter x="0%" y="0%" width="100%" height="100%" id="5445432825"><feColorMatrix values="0 0 0 0 1 0 0 0 0 1 0 0 0 0 1 0 0 0 1 0" color-interpolation-filters="sRGB"/></filter><g/><mask id="094fa5d83a"><g filter="url(#5445432825)"><rect x="-125.025" width="1500.3" fill="#000000" y="-130.274997" height="1563.299959" fill-opacity="0.86"/></g></mask><clipPath id="25cc30aadb"><path d="M 0.65625 0.183594 L 898.199219 0.183594 L 898.199219 989.589844 L 0.65625 989.589844 Z M 0.65625 0.183594 " clip-rule="nonzero"/></clipPath><clipPath id="fb45ff4c90"><rect x="0" width="434" y="0" height="571"/></clipPath><mask id="10ea5bfc22"><g filter="url(#5445432825)"><rect x="-628.091" width="2160.432" fill="#000000" y="-612.200988" height="2251.151941" fill-opacity="0.86"/></g></mask><clipPath id="53d0771440"><path d="M 0.554688 0.445312 L 616.984375 0.445312 L 616.984375 558.109375 L 0.554688 558.109375 Z M 0.554688 0.445312 " clip-rule="nonzero"/></clipPath><clipPath id="fe94e218d1"><rect x="0" width="617" y="0" height="559"/></clipPath><clipPath id="19fe68fa6f"><rect x="0" width="617" y="0" height="559"/></clipPath><mask id="23971aa14b"><g filter="url(#5445432825)"><rect x="-628.091" width="2160.432" fill="#000000" y="-612.200988" height="2251.151941" fill-opacity="0.86"/></g></mask><clipPath id="d6b34467ec"><path d="M 0.996094 0.398438 L 388.363281 0.398438 L 388.363281 554.707031 L 0.996094 554.707031 Z M 0.996094 0.398438 " clip-rule="nonzero"/></clipPath><clipPath id="35494d5537"><rect x="0" width="389" y="0" height="555"/></clipPath><clipPath id="900fdffb16"><rect x="0" width="389" y="0" height="555"/></clipPath><mask id="2ca0b3d871"><g filter="url(#5445432825)"><rect x="-628.091" width="2160.432" fill="#000000" y="-612.200988" height="2251.151941" fill-opacity="0.86"/></g></mask><clipPath id="adfefb8291"><path d="M 0.15625 0.589844 L 311.488281 0.589844 L 311.488281 536.429688 L 0.15625 536.429688 Z M 0.15625 0.589844 " clip-rule="nonzero"/></clipPath><clipPath id="658df41928"><rect x="0" width="312" y="0" height="537"/></clipPath><clipPath id="c5d771334c"><rect x="0" width="312" y="0" height="537"/></clipPath><clipPath id="64cc87a5f4"><rect x="0" width="899" y="0" height="990"/></clipPath><clipPath id="54974a9a68"><rect x="0" width="899" y="0" height="990"/></clipPath></defs><g mask="url(#094fa5d83a)"><g transform="matrix(1, 0, 0, 1, 173, 138)"><g clip-path="url(#54974a9a68)"><g clip-path="url(#25cc30aadb)"><g transform="matrix(1, 0, 0, 1, -0.000000000000028422, 0)"><g clip-path="url(#64cc87a5f4)"><g transform="matrix(1, 0, 0, 1, 270, 258)"><g clip-path="url(#fb45ff4c90)"><g fill="#442670" fill-opacity="1"><g transform="translate(129.330215, 465.770531)"><g><path d="M 235.34375 -81.1875 L 182.71875 -63.046875 L 145.640625 -170.5 L 47.046875 -136.46875 L 84.125 -29.015625 L 31.328125 -10.8125 L -54.5625 -259.78125 L -1.765625 -277.984375 L 31.890625 -180.40625 L 130.484375 -214.4375 L 96.828125 -312.015625 L 149.453125 -330.15625 Z M 235.34375 -81.1875 "/></g></g></g></g></g><g mask="url(#10ea5bfc22)"><g transform="matrix(1, 0, 0, 1, 168, 295)"><g clip-path="url(#19fe68fa6f)"><g clip-path="url(#53d0771440)"><g transform="matrix(1, 0, 0, 1, -0.000000000000113687, -0.000000000000113687)"><g clip-path="url(#fe94e218d1)"><g fill="#ffffff" fill-opacity="1"><g transform="translate(31.882223, 321.590434)"><g><path d="M 109.265625 32.734375 L 63.984375 19.171875 L 116.6875 -156.703125 L 58.6875 -174.078125 L 69.984375 -211.765625 L 231.265625 -163.4375 L 219.96875 -125.75 L 161.96875 -143.140625 Z M 109.265625 32.734375 "/></g></g></g><g fill="#ffffff" fill-opacity="1"><g transform="translate(205.126684, 373.505589)"><g><path d="M 164.390625 -132.0625 C 170.421875 -130.25 175.304688 -128.3125 179.046875 -126.25 L 163.140625 -85.46875 C 159.835938 -87.519531 155.609375 -89.320312 150.453125 -90.875 C 136.234375 -95.132812 124.054688 -94.800781 113.921875 -89.875 C 103.796875 -84.945312 96.765625 -75.90625 92.828125 -62.75 L 67.921875 20.359375 L 23.375 7 L 72.3125 -156.3125 L 106.046875 -146.203125 L 104.40625 -116.78125 L 106.609375 -116.109375 C 114.398438 -123.742188 123.445312 -129.066406 133.75 -132.078125 C 144.050781 -135.097656 154.265625 -135.09375 164.390625 -132.0625 Z M 164.390625 -132.0625 "/></g></g></g><g fill="#ffffff" fill-opacity="1"><g transform="translate(340.976049, 414.214774)"><g><path d="M 48.9375 -163.3125 L 97.734375 -148.6875 L 101.015625 -47.578125 C 101.253906 -38.796875 100.222656 -28.8125 97.921875 -17.625 L 98.796875 -17.359375 C 102.878906 -27.054688 107.804688 -35.875 113.578125 -43.8125 L 171.359375 -126.625 L 219.109375 -112.3125 L 94.828125 51.1875 C 83.378906 66.320312 70.519531 76.367188 56.25 81.328125 C 41.976562 86.285156 27.007812 86.414062 11.34375 81.71875 C 3.644531 79.414062 -3.660156 76.328125 -10.578125 72.453125 L 0.015625 37.09375 C 5.003906 39.96875 10.660156 42.351562 16.984375 44.25 C 24.878906 46.613281 32.492188 46.269531 39.828125 43.21875 C 47.160156 40.164062 53.941406 34.269531 60.171875 25.53125 L 65.203125 18.265625 Z M 48.9375 -163.3125 "/></g></g></g></g></g></g></g></g></g><g mask="url(#23971aa14b)"><g transform="matrix(1, 0, 0, 1, 98, 107)"><g clip-path="url(#900fdffb16)"><g clip-path="url(#d6b34467ec)"><g transform="matrix(1, 0, 0, 1, -0.000000000000113687, -0.000000000000028422)"><g clip-path="url(#35494d5537)"><g fill="#6ae1cb" fill-opacity="1"><g transform="translate(132.23398, 449.186467)"><g><path d="M 35.671875 -119.203125 C 42.171875 -100.359375 50.175781 -87.175781 59.6875 -79.65625 C 69.207031 -72.144531 80.953125 -70.800781 94.921875 -75.625 C 108.773438 -80.394531 117.078125 -88.628906 119.828125 -100.328125 C 122.585938 -112.023438 120.703125 -127.347656 114.171875 -146.296875 C 107.660156 -165.148438 99.710938 -178.226562 90.328125 -185.53125 C 80.953125 -192.84375 69.285156 -194.085938 55.328125 -189.265625 C 41.472656 -184.484375 33.097656 -176.347656 30.203125 -164.859375 C 27.304688 -153.378906 29.128906 -138.160156 35.671875 -119.203125 Z M 167.3125 -164.625 C 178 -133.625 178.179688 -106.5625 167.859375 -83.4375 C 157.546875 -60.320312 137.800781 -43.734375 108.625 -33.671875 C 90.351562 -27.359375 72.851562 -25.796875 56.125 -28.984375 C 39.40625 -32.171875 24.710938 -39.960938 12.046875 -52.359375 C -0.617188 -64.765625 -10.394531 -80.957031 -17.28125 -100.9375 C -28.019531 -132.050781 -28.25 -159.035156 -17.96875 -181.890625 C -7.6875 -204.742188 12.148438 -221.242188 41.546875 -231.390625 C 59.828125 -237.691406 77.320312 -239.28125 94.03125 -236.15625 C 110.75 -233.03125 125.414062 -225.320312 138.03125 -213.03125 C 150.65625 -200.738281 160.414062 -184.601562 167.3125 -164.625 Z M 167.3125 -164.625 "/></g></g></g></g></g></g></g></g></g><g mask="url(#2ca0b3d871)"><g transform="matrix(1, 0, 0, 1, 367, 55)"><g clip-path="url(#c5d771334c)"><g clip-path="url(#adfefb8291)"><g transform="matrix(1, 0, 0, 1, -0.000000000000113687, -0.000000000000028422)"><g clip-path="url(#658df41928)"><g fill="#4bd4c8" fill-opacity="1"><g transform="translate(61.693158, 426.874792)"><g><path d="M 107.25 -224.59375 C 130.738281 -228.289062 150.566406 -222.015625 166.734375 -205.765625 C 182.910156 -189.523438 193.507812 -165.453125 198.53125 -133.546875 C 203.707031 -100.679688 200.863281 -74.15625 190 -53.96875 C 179.132812 -33.78125 161.898438 -21.828125 138.296875 -18.109375 C 114.921875 -14.429688 95.257812 -20.03125 79.3125 -34.90625 L 75.578125 -34.328125 L 69.9375 -11 L 28.484375 -4.484375 L -15.09375 -281.390625 L 39.171875 -289.921875 L 49.3125 -225.484375 C 50.601562 -217.296875 51.953125 -204.078125 53.359375 -185.828125 L 55.5 -186.15625 C 65.09375 -207.851562 82.34375 -220.664062 107.25 -224.59375 Z M 96.65625 -178.421875 C 83.25 -176.304688 74.109375 -170.640625 69.234375 -161.421875 C 64.359375 -152.210938 63.300781 -138.09375 66.0625 -119.0625 L 66.984375 -113.203125 C 70.335938 -91.847656 75.914062 -77.039062 83.71875 -68.78125 C 91.53125 -60.53125 102.3125 -57.488281 116.0625 -59.65625 C 127.21875 -61.414062 135.28125 -67.945312 140.25 -79.25 C 145.226562 -90.550781 146.175781 -105.988281 143.09375 -125.5625 C 140.019531 -145.132812 134.382812 -159.289062 126.1875 -168.03125 C 118 -176.769531 108.15625 -180.234375 96.65625 -178.421875 Z M 96.65625 -178.421875 "/></g></g></g></g></g></g></g></g></g></g></g></g></g></g></g></svg>